P3
# Created by GIMP version 2.10.18 PNM plug-in
10 10
255
0
0
0
0
0
0
0
0
0
0
0
0
0
0
0
0
0
0
0
0
0
0
0
0
0
0
0
0
0
0
0
0
0
74
62
0
190
159
0
0
114
20
0
114
20
0
91
14
0
123
22
0
82
11
151
125
0
0
0
0
0
0
0
98
92
0
241
207
4
0
79
11
0
57
6
0
91
14
0
123
22
111
159
20
241
202
0
0
0
0
0
0
0
0
114
20
0
57
6
0
0
0
0
0
0
0
0
0
0
0
0
0
91
14
120
148
18
0
0
0
0
0
0
0
91
14
0
91
14
0
0
0
0
0
0
0
0
0
0
0
0
0
0
0
0
114
20
0
57
6
0
0
0
0
91
14
0
91
14
0
0
0
0
0
0
0
0
0
0
0
0
0
0
0
0
114
20
0
57
6
0
0
0
0
91
14
206
190
9
195
167
0
0
0
0
0
0
0
0
0
0
149
133
0
146
159
19
0
57
6
0
0
0
0
91
14
216
198
9
208
179
4
0
0
0
0
0
0
0
0
0
210
180
5
209
185
5
0
0
0
0
0
0
0
0
0
0
91
14
0
114
20
0
126
23
0
126
23
0
126
23
0
114
20
0
91
14
0
0
0
0
0
0
0
0
0
0
0
0
0
0
0
0
0
0
0
0
0
0
0
0
0
0
0
0
0
0
0
0
0
