P3
# CREATOR: GIMP PNM Filter Version 1.1
10 10
255
0
0
0
246
0
255
0
0
0
246
0
255
0
0
0
246
0
255
0
0
0
246
0
255
0
0
0
246
0
255
246
0
255
0
0
0
246
0
255
0
0
0
246
0
255
0
0
0
246
0
255
0
0
0
246
0
255
0
0
0
0
0
0
246
0
255
0
0
0
246
0
255
0
0
0
246
0
255
0
0
0
246
0
255
0
0
0
246
0
255
246
0
255
0
0
0
246
0
255
0
0
0
246
0
255
0
0
0
246
0
255
0
0
0
246
0
255
0
0
0
0
0
0
246
0
255
0
0
0
246
0
255
0
0
0
246
0
255
0
0
0
246
0
255
0
0
0
246
0
255
246
0
255
0
0
0
246
0
255
0
0
0
246
0
255
0
0
0
246
0
255
0
0
0
246
0
255
0
0
0
0
0
0
246
0
255
0
0
0
246
0
255
0
0
0
246
0
255
0
0
0
246
0
255
0
0
0
246
0
255
246
0
255
0
0
0
246
0
255
0
0
0
246
0
255
0
0
0
246
0
255
0
0
0
246
0
255
0
0
0
0
0
0
246
0
255
0
0
0
246
0
255
0
0
0
246
0
255
0
0
0
246
0
255
0
0
0
246
0
255
246
0
255
0
0
0
246
0
255
0
0
0
246
0
255
0
0
0
246
0
255
0
0
0
246
0
255
0
0
0
