P3
# CREATOR: GIMP PNM Filter Version 1.1
10 10
255
0
0
0
18
255
0
0
0
0
0
0
0
0
255
252
0
0
0
0
0
0
0
0
0
0
0
0
0
0
0
0
0
0
18
255
0
0
0
0
0
255
252
0
0
0
0
0
0
0
0
0
0
0
0
0
0
0
0
0
0
0
0
0
18
255
0
0
255
252
0
255
252
0
0
0
0
0
0
0
0
0
0
0
0
0
0
0
0
0
0
0
0
0
0
255
252
0
255
252
0
0
0
0
0
0
0
0
0
0
0
0
0
0
0
0
0
0
0
0
0
0
255
252
0
0
0
18
255
0
0
0
0
0
0
0
0
0
0
0
0
0
0
0
0
255
0
174
255
0
174
0
0
0
0
0
0
18
255
0
18
255
0
0
0
0
0
0
0
255
0
174
255
0
174
0
0
0
0
0
0
0
0
0
0
0
0
0
0
0
18
255
0
18
255
0
255
0
174
255
0
174
0
0
0
0
0
0
0
0
0
0
0
0
0
0
0
0
0
0
0
0
0
0
0
0
255
0
174
18
255
0
18
255
0
0
0
0
0
0
0
0
0
0
0
0
0
0
0
0
0
0
0
255
0
174
0
0
0
0
0
0
18
255
0
18
255
0
18
255
0
0
0
0
0
0
0
0
0
0
0
0
0
255
0
174
0
0
0
0
0
0
0
0
0
0
0
0
0
0
0
