P3
# CREATOR: GIMP PNM Filter Version 1.1
10 10
255
255
0
78
255
0
156
228
0
255
120
0
255
0
42
255
0
228
255
0
255
144
18
255
0
168
255
0
255
252
0
255
0
78
255
0
156
228
0
255
120
0
255
0
42
255
0
228
255
0
255
144
18
255
0
168
255
0
255
252
0
255
0
78
255
0
156
228
0
255
120
0
255
0
42
255
0
228
255
0
255
144
18
255
0
168
255
0
255
252
0
255
0
78
255
0
156
228
0
255
120
0
255
0
42
255
0
228
255
0
255
144
18
255
0
168
255
0
255
252
0
255
0
78
255
0
156
228
0
255
120
0
255
0
42
255
0
228
255
0
255
144
18
255
0
168
255
0
255
252
0
255
0
78
255
0
156
228
0
255
120
0
255
0
42
255
0
228
255
0
255
144
18
255
0
168
255
0
255
252
0
255
0
78
255
0
156
228
0
255
120
0
255
0
42
255
0
228
255
0
255
144
18
255
0
168
255
0
255
252
0
255
0
78
255
0
156
228
0
255
120
0
255
0
42
255
0
228
255
0
255
144
18
255
0
168
255
0
255
252
0
255
0
78
255
0
156
228
0
255
120
0
255
0
42
255
0
228
255
0
255
144
18
255
0
168
255
0
255
252
0
255
0
78
255
0
156
228
0
255
120
0
255
0
42
255
0
228
255
0
255
144
18
255
0
168
255
0
255
252
0
