P3
# Created by GIMP version 2.10.6 PNM plug-in
10 10
255
0
0
0
0
0
0
0
0
0
0
0
0
0
0
0
0
1
23
0
2
42
0
2
42
0
0
0
0
0
0
0
0
0
0
0
0
0
0
0
0
0
0
0
1
13
0
0
0
0
2
42
0
3
66
0
3
66
0
0
0
0
0
0
0
0
0
0
0
0
0
0
0
0
0
0
0
0
0
0
0
0
0
3
66
0
5
100
0
5
100
0
0
0
0
0
0
0
0
0
0
0
0
0
0
0
0
0
0
0
0
0
0
0
0
0
0
0
0
5
100
0
0
0
0
0
0
0
0
0
0
0
0
0
0
0
0
0
0
0
0
0
0
0
0
0
6
137
0
6
137
0
0
0
0
0
0
0
0
0
0
0
0
0
0
0
0
0
0
0
0
0
0
9
187
0
9
187
0
6
137
0
0
0
0
0
0
0
0
0
0
0
0
0
0
0
0
12
255
0
12
255
0
12
255
0
9
187
0
0
0
0
0
0
0
0
0
0
0
0
0
0
0
0
0
0
0
12
255
0
12
255
0
12
255
0
0
0
0
0
0
0
0
0
0
0
0
0
0
0
0
0
0
0
0
0
0
12
255
0
12
255
0
12
255
0
0
0
0
0
0
0
0
0
0
0
0
0
0
0
0
0
0
0
0
0
0
0
0
0
0
0
0
0
0
0
0
0
0
0
0
