P3
# CREATOR: GIMP PNM Filter Version 1.1
10 10
255
0
0
0
0
0
0
0
0
0
0
0
0
0
0
0
0
0
0
215
215
215
215
215
215
0
0
0
0
0
0
0
0
0
0
0
0
0
0
0
0
0
0
0
0
0
0
0
0
215
215
215
0
0
0
0
0
0
0
0
0
0
0
0
0
0
0
0
0
0
0
0
0
0
0
0
0
0
0
215
215
215
0
0
0
0
0
0
215
215
215
0
0
0
0
0
0
0
0
0
0
0
0
0
0
0
215
215
215
215
215
215
215
215
215
215
215
215
215
215
215
0
0
0
0
0
0
0
0
0
0
0
0
215
215
215
215
215
215
215
215
215
0
0
0
0
0
0
0
0
0
0
0
0
0
0
0
0
0
0
215
215
215
215
215
215
215
215
215
0
0
0
0
0
0
0
0
0
0
0
0
215
215
215
215
215
215
215
215
215
215
215
215
215
215
215
0
0
0
0
0
0
0
0
0
0
0
0
0
0
0
215
215
215
0
0
0
0
0
0
215
215
215
0
0
0
0
0
0
0
0
0
0
0
0
0
0
0
0
0
0
0
0
0
0
0
0
0
0
0
215
215
215
0
0
0
0
0
0
0
0
0
0
0
0
0
0
0
0
0
0
0
0
0
0
0
0
215
215
215
215
215
215
0
0
0
0
0
0
0
0
0
0
0
0
0
0
0
0
0
0
