P3
# CREATOR: GIMP PNM Filter Version 1.1
10 10
255
0
0
0
0
0
0
0
0
0
0
0
0
0
0
0
0
0
0
0
0
0
0
0
0
0
0
0
0
0
0
42
0
255
42
0
255
42
0
255
42
0
255
255
255
255
42
0
255
42
0
255
42
0
255
42
0
255
0
0
0
42
0
255
42
0
255
42
0
255
255
255
255
255
255
255
255
255
255
42
0
255
42
0
255
42
0
255
0
0
0
42
0
255
42
0
255
42
0
255
42
0
255
255
255
255
42
0
255
42
0
255
42
0
255
42
0
255
0
0
0
42
0
255
255
255
255
42
0
255
42
0
255
255
255
255
42
0
255
42
0
255
255
255
255
42
0
255
0
0
0
255
255
255
255
255
255
255
255
255
255
255
255
42
0
255
255
255
255
255
255
255
255
255
255
255
255
255
0
0
0
42
0
255
255
255
255
42
0
255
42
0
255
255
255
255
42
0
255
42
0
255
255
255
255
42
0
255
0
0
0
42
0
255
42
0
255
42
0
255
42
0
255
255
255
255
42
0
255
42
0
255
42
0
255
42
0
255
0
0
0
42
0
255
42
0
255
42
0
255
255
255
255
255
255
255
255
255
255
42
0
255
42
0
255
42
0
255
0
0
0
42
0
255
42
0
255
42
0
255
42
0
255
255
255
255
42
0
255
42
0
255
42
0
255
42
0
255
0
0
0
