P3
# Created by GIMP version 2.10.14 PNM plug-in
10 10
255
0
0
0
0
0
0
0
0
0
0
0
0
0
0
0
0
0
0
0
0
0
0
0
0
0
0
0
0
0
0
0
0
0
0
0
0
0
0
0
220
0
255
220
0
255
0
0
0
0
0
0
0
0
0
0
0
0
0
0
0
0
0
0
0
0
0
0
0
0
0
0
0
220
0
255
0
0
0
0
0
0
0
0
0
0
0
0
0
0
0
0
0
0
0
0
0
0
0
0
0
0
0
220
0
255
0
0
0
0
0
0
0
0
0
0
0
0
0
0
0
0
0
0
0
0
0
0
0
0
0
0
0
0
0
0
0
0
0
0
0
0
0
0
0
0
0
0
0
0
0
0
0
0
0
0
0
0
0
0
0
0
0
0
0
0
0
0
0
0
0
0
0
0
0
0
0
0
0
0
0
0
0
0
0
0
0
220
0
255
0
0
0
0
0
0
0
255
12
0
0
0
255
247
0
0
0
0
0
0
0
255
152
0
255
152
0
220
0
255
0
0
0
0
0
0
0
255
12
0
0
0
255
247
0
255
247
0
10
0
255
255
152
0
255
152
0
220
0
255
220
0
255
0
0
0
0
255
12
255
152
0
255
152
0
255
247
0
10
0
255
0
255
12
0
255
12
0
255
12
0
255
12
0
0
0
0
255
12
255
152
0
255
152
0
10
0
255
10
0
255
